<svg width="4928" height="3080" viewBox="0 0 4928 3080" fill="none" xmlns="http://www.w3.org/2000/svg">

<!-- Snowflake -->
<g id="snowflake">
<path d="M2457.74 982.667C2455.34 984 2452.54 987.067 2451.34 989.2C2449.07 993.733 2448.67 1007.07 2450.54 1016.93C2452.54 1026.4 2453.2 1072 2451.47 1072C2449.74 1072 2435.6 1058.53 2419.2 1041.2C2412.54 1034.13 2405.34 1027.73 2403.07 1027.07C2393.07 1023.6 2381.6 1037.07 2384.54 1048.8C2385.07 1050.67 2392.8 1059.87 2401.87 1069.07C2429.34 1097.47 2445.34 1115.07 2448.94 1121.07L2452.27 1126.67L2452.94 1186.13C2453.34 1218.8 2453.2 1247.07 2452.8 1248.8C2451.47 1253.87 2447.6 1252.67 2440.67 1244.93C2430.14 1233.6 2415.2 1217.73 2398.14 1200C2351.87 1152.13 2353.34 1154.4 2351.74 1130.27C2351.2 1120.53 2350 1105.47 2349.34 1096.67C2348.54 1087.87 2348 1077.33 2348 1073.33C2348 1065.33 2344.94 1058.67 2340.14 1056C2336.94 1054.4 2326.4 1053.87 2324 1055.33C2318.27 1058.8 2316.27 1077.2 2318.67 1104.53C2319.47 1115.33 2320 1124.4 2319.74 1124.67C2318.54 1126 2284 1082.8 2277.87 1072.27C2273.2 1064 2260.54 1060.27 2252.27 1064.53C2244.8 1068.4 2240.94 1074.13 2240.27 1081.87C2240 1085.87 2240 1091.2 2240.54 1093.73C2241.74 1100.13 2249.34 1107.2 2259.07 1110.8C2265.2 1113.07 2270 1116.4 2278.54 1124.4C2284.94 1130.27 2293.2 1137.07 2297.07 1139.6C2303.87 1144.27 2305.6 1147.2 2302.4 1148.4C2301.47 1148.67 2288.67 1148.67 2274 1148.27C2241.6 1147.47 2235.47 1148.67 2231.6 1156.4C2226.54 1166.4 2229.34 1177.07 2237.74 1179.87C2240 1180.8 2260.54 1182 2284 1182.67C2336.54 1184.27 2335.87 1184.27 2342.27 1190.4C2345.2 1193.07 2360.67 1208 2376.8 1223.6C2392.8 1239.07 2408.4 1253.73 2411.34 1256C2419.74 1262.67 2430.67 1273.2 2430.67 1274.53C2430.67 1277.07 2409.07 1277.73 2355.2 1276.93C2294.4 1276.13 2295.2 1276.27 2286.54 1267.07C2265.07 1244.4 2232.27 1212.93 2228 1210.67C2221.2 1207.2 2220.94 1207.2 2215.6 1212C2209.87 1216.93 2207.47 1222.67 2208.54 1228.4C2209.74 1234.93 2225.07 1253.2 2238 1263.6C2244.14 1268.67 2249.2 1273.47 2249.34 1274.4C2249.34 1275.87 2242.67 1276.13 2213.07 1275.87C2172.54 1275.6 2172.14 1275.6 2164.14 1284.8C2156.27 1293.73 2159.87 1303.2 2173.74 1309.87C2180.4 1313.07 2180.94 1313.2 2190 1311.47C2204.94 1308.53 2249.34 1308.13 2249.34 1310.8C2249.34 1312.93 2231.6 1331.73 2219.87 1341.87C2205.87 1354.13 2205.2 1355.73 2209.74 1364.53C2213.07 1370.93 2220.67 1377.33 2224.94 1377.33C2225.6 1377.33 2234.54 1368.53 2244.67 1357.6C2266.14 1334.8 2294.8 1309.33 2299.07 1309.33C2333.6 1309.2 2398 1308 2410.4 1307.2C2424.14 1306.4 2426.67 1306.53 2426.67 1308.13C2426.67 1309.2 2421.47 1316.13 2415.07 1323.33C2402.4 1337.87 2345.2 1395.33 2341.34 1397.33C2339.2 1398.53 2313.74 1400 2256 1402.53C2245.34 1402.93 2235.87 1403.87 2234.94 1404.4C2232.27 1406.13 2228 1415.6 2228 1419.6C2228 1424.4 2231.07 1428.8 2236.27 1431.47C2239.6 1433.2 2245.07 1433.47 2269.2 1433.33C2285.07 1433.2 2298.67 1433.07 2299.6 1433.2C2303.07 1433.47 2298.94 1439.07 2285.47 1452.27C2270.27 1466.93 2264.94 1471.07 2250.4 1479.07C2243.34 1483.07 2241.07 1485.07 2238.8 1489.73C2237.2 1492.93 2236 1496.8 2236 1498.4C2236 1503.47 2242.27 1513.87 2247.2 1517.07C2258.54 1524.67 2267.6 1519.87 2281.74 1498.93C2287.6 1490.27 2293.34 1483.47 2296.94 1480.93C2300.14 1478.53 2305.74 1474.4 2309.34 1471.6C2312.94 1468.93 2316.27 1466.67 2316.67 1466.67C2317.07 1466.67 2317.07 1477.2 2316.67 1490.13C2315.87 1517.07 2316.54 1519.47 2326.14 1524C2333.47 1527.6 2338.8 1526.4 2343.6 1520.13C2347.74 1514.8 2348 1512.4 2350.4 1452.53C2351.34 1429.07 2351.47 1428.27 2354.94 1423.73C2356.94 1421.07 2360.14 1418.67 2361.87 1418.13C2364 1417.6 2367.34 1414.4 2370.54 1409.6C2373.47 1405.47 2377.47 1400.4 2379.6 1398.4C2397.87 1380.8 2411.87 1365.6 2410.8 1364.67C2410.54 1364.27 2411.2 1364 2412.27 1364C2413.34 1364 2422 1356.67 2431.34 1347.6C2440.67 1338.67 2449.2 1331.2 2450.14 1330.93C2451.74 1330.53 2452 1340.8 2452 1393.73V1457.07L2437.34 1471.47C2429.2 1479.47 2420.8 1488.67 2418.4 1491.87C2416.14 1495.07 2407.34 1504.8 2399.07 1513.47C2384.8 1528.4 2384 1529.47 2384 1534.8C2384 1539.47 2384.8 1541.07 2389.2 1545.47C2393.34 1549.6 2395.34 1550.67 2399.2 1550.67C2403.74 1550.67 2405.74 1549.07 2426.8 1528C2439.34 1515.47 2450 1505.33 2450.54 1505.33C2451.6 1505.33 2451.34 1550.8 2450 1571.33C2449.07 1586.8 2449.2 1587.47 2452.27 1592C2456.4 1598 2463.34 1602.67 2468.4 1602.67C2479.74 1602.67 2489.6 1587.73 2485.34 1576.8C2481.87 1567.6 2481.07 1506.67 2484.4 1506.67C2485.07 1506.67 2492.8 1514.13 2501.6 1523.2C2520 1542.53 2528.67 1549.33 2535.87 1550.27C2540.27 1550.8 2541.47 1550.4 2544.54 1547.2C2546.54 1545.07 2549.07 1541.33 2550 1538.93C2551.74 1534.93 2551.74 1534 2549.34 1529.6C2548 1526.93 2534 1511.6 2518.4 1495.73C2502.8 1479.87 2488.67 1465.47 2486.94 1463.6L2483.87 1460.4L2483.2 1402.53C2482.94 1370.67 2482.27 1342.67 2481.87 1340.27C2481.47 1337.87 2481.6 1335.33 2482 1334.53C2482.54 1333.87 2488.4 1338.8 2495.2 1345.6C2502 1352.4 2513.2 1363.07 2520 1369.33C2526.8 1375.6 2542.94 1390.8 2555.87 1403.33C2576 1422.8 2579.6 1426.8 2581.07 1432C2582.27 1435.73 2583.34 1452 2584.27 1475.33C2585.74 1516.27 2585.47 1515.2 2594.94 1522.27C2600.14 1526 2605.6 1526.13 2611.34 1522.67C2618.8 1518.13 2620 1511.73 2618.67 1486.27C2618 1475.87 2618 1466.8 2618.54 1466.27C2620.54 1464.13 2647.6 1490.53 2657.2 1503.73C2670.4 1522.13 2676.14 1524.8 2686.4 1517.33C2693.34 1512.27 2696 1506.13 2696 1494.8C2696 1483.87 2695.07 1482.8 2679.34 1472.67C2672.8 1468.4 2662.54 1460.27 2656.67 1454.67C2650.8 1449.07 2643.34 1442.67 2640 1440.53C2634 1436.67 2632 1434.8 2632 1432.93C2632 1432.4 2646.4 1432 2663.87 1432C2701.74 1432 2701.47 1432.13 2702.4 1419.07C2702.94 1411.73 2702.67 1410.67 2699.2 1406.8C2695.47 1402.67 2694.94 1402.53 2682.67 1402C2634.67 1399.73 2613.07 1398.53 2607.34 1397.87C2592.94 1396.13 2588.94 1392.93 2537.6 1342.4C2517.87 1322.93 2506.67 1310.93 2506.94 1309.47C2507.34 1307.6 2509.47 1307.33 2522 1307.33C2530.14 1307.33 2541.74 1307.87 2548 1308.4C2554.4 1308.93 2575.74 1308.8 2596.8 1307.87C2619.34 1306.93 2635.07 1306.8 2636.4 1307.47C2637.6 1308.13 2641.34 1312.27 2644.67 1316.67C2655.2 1330.4 2696.94 1371.6 2703.47 1374.8C2712 1378.8 2716.67 1377.33 2722.4 1368.67C2724.8 1364.93 2727.07 1360.67 2727.47 1359.07C2728.54 1354.93 2721.87 1347.07 2704.27 1331.73C2682.14 1312.4 2679.6 1309.87 2680.54 1308.13C2681.07 1307.33 2683.74 1306.67 2686.4 1306.67C2698 1306.67 2736.27 1309.73 2746.14 1311.47C2760.4 1314 2763.87 1312.8 2769.34 1303.33C2774.14 1294.8 2774.27 1292.13 2770 1284.8C2767.47 1280.4 2765.34 1278.67 2760.27 1276.93C2754.4 1274.8 2750.8 1274.67 2720.54 1275.87C2700.14 1276.67 2686.8 1276.67 2686 1275.87C2685.2 1275.07 2688.14 1271.6 2694 1266.27C2717.87 1245.07 2727.47 1230.93 2724.14 1222.4C2723.47 1220.67 2720.94 1217.33 2718.67 1214.93C2712.94 1209.2 2705.6 1208.93 2701.34 1214.27C2699.87 1216.27 2687.87 1228.93 2674.94 1242.4C2662 1255.87 2650.27 1268.67 2648.94 1270.8C2647.47 1272.93 2645.74 1274.8 2644.94 1274.8C2644 1274.93 2628.94 1275.2 2611.34 1275.33C2593.74 1275.47 2573.34 1276.4 2566.14 1277.33C2552.8 1279.07 2512.54 1278.53 2507.74 1276.67C2506.4 1276.13 2505.34 1274.67 2505.34 1273.47C2505.34 1270.8 2513.34 1262.8 2519.87 1258.93C2522.27 1257.47 2526.8 1252.67 2529.87 1248.27C2537.47 1237.33 2541.2 1233.2 2547.47 1228.93C2553.2 1225.07 2556 1222.13 2564.67 1211.33C2572.14 1201.87 2588.54 1186.93 2592.27 1186C2594 1185.73 2616.94 1185.2 2643.34 1185.07C2687.07 1184.67 2691.74 1184.4 2695.07 1182.27C2705.47 1175.47 2706.8 1161.07 2697.87 1153.2C2695.07 1150.8 2685.87 1149.87 2651.6 1148.53C2634.14 1147.73 2630.94 1147.33 2632.14 1145.87C2632.94 1144.8 2634.4 1144 2635.34 1144C2637.34 1144 2642.8 1137.87 2653.34 1124.13C2661.34 1113.6 2666.94 1109.33 2672.8 1109.33C2678.27 1109.2 2687.34 1104.8 2689.87 1101.07C2694.14 1094.4 2696.14 1086.53 2694.54 1081.73C2691.34 1071.87 2682.27 1065.33 2671.87 1065.33C2665.74 1065.33 2661.6 1068.93 2650.4 1084C2646.27 1089.47 2638.67 1098.13 2633.34 1103.33C2628.14 1108.4 2621.74 1115.47 2619.07 1118.93C2612.67 1127.73 2611.47 1127.2 2612.54 1116.27C2613.2 1111.33 2613.74 1104.67 2613.87 1101.33C2614.14 1098 2614.67 1089.07 2615.2 1081.33C2616.27 1064.67 2614.54 1059.6 2606.27 1055.47C2601.47 1053.2 2600.94 1053.2 2595.2 1055.33C2590.8 1056.93 2588.54 1058.93 2586.14 1063.07C2582.14 1070.27 2581.47 1075.47 2581.2 1104C2580.94 1135.47 2579.47 1150.4 2576.14 1158.13C2574 1162.8 2566.67 1171.2 2548.94 1189.07C2494.27 1244.67 2483.87 1254.67 2483.2 1252.93C2482.94 1252 2482.8 1222.13 2482.94 1186.67L2483.34 1122L2487.34 1116.67C2501.87 1097.2 2516.67 1081.47 2529.74 1071.07C2534 1067.73 2540.8 1061.73 2544.8 1057.73C2552.67 1049.87 2553.74 1045.87 2550.14 1038.8C2547.47 1033.6 2539.2 1026.67 2535.74 1026.67C2531.6 1026.67 2522.4 1034.8 2514 1045.87C2510 1051.2 2502 1059.73 2496.4 1064.8C2490.67 1069.87 2485.07 1075.2 2483.74 1076.67C2480.67 1080.27 2478.27 1077.87 2479.87 1072.67C2480.4 1070.4 2480.94 1060.8 2481.07 1051.33C2481.2 1041.73 2482 1024.67 2482.94 1013.2L2484.4 992.533L2481.34 988.267C2475.47 980.267 2465.47 977.867 2457.74 982.667Z" fill="#132A3F"/> 
</g>

<!-- SainAir -->
<g id="titre">
<path d="M2063.34 1957.47C2028 1963.47 2007.47 1988.27 2012 2019.73C2015.07 2041.33 2028.27 2053.33 2060.67 2064C2091.6 2074.13 2101.2 2083.47 2097.2 2099.2C2094.14 2111.33 2082.14 2118.67 2065.47 2118.67C2053.6 2118.67 2045.07 2115.33 2036.4 2107.6L2029.34 2101.07L2017.47 2112.13L2005.47 2123.07L2008.14 2126.53C2021.2 2143.07 2056.94 2152.27 2084.54 2146.13C2104 2141.73 2119.34 2130.67 2126.4 2115.73C2136.27 2094.67 2132 2066.93 2116.94 2054C2109.34 2047.33 2102.54 2044 2081.34 2036.67C2060.94 2029.6 2053.87 2026 2048.67 2019.73C2045.47 2016 2045.07 2014.53 2045.6 2008C2046.27 1998.53 2050.27 1992.67 2058.4 1988.93C2072.27 1982.93 2090.14 1985.07 2102 1994.13L2108.27 1998.93L2119.34 1987.07L2130.4 1975.33L2127.6 1972.27C2123.07 1967.33 2106.94 1960.13 2095.6 1958C2084.27 1955.87 2073.87 1955.6 2063.34 1957.47Z" fill="#132A3F"/>
<path d="M2332.8 1960C2321.87 1963.47 2316.67 1976.53 2322.67 1986.27C2332.53 2002.67 2359.07 1996.13 2359.07 1977.33C2359.07 1964.93 2345.47 1956 2332.8 1960Z" fill="#132A3F"/>
<path d="M2764.66 1961.33C2757.86 1964.67 2754.66 1970 2754.66 1977.87C2754.66 1982.67 2755.46 1984.8 2758.8 1988.67C2770.66 2002.13 2793.33 1994.53 2793.33 1977.07C2793.33 1970.67 2788.8 1964.27 2782.26 1961.33C2775.06 1958 2771.33 1958 2764.66 1961.33Z" fill="#132A3F"/>
<path d="M2620.14 1966.93C2604.8 2002.4 2580.4 2058.53 2564.67 2094.67C2553.87 2119.2 2544.8 2140.4 2544.4 2141.73C2543.74 2143.87 2544.94 2144 2561.47 2143.73L2579.34 2143.33L2584.4 2130.67C2587.2 2123.73 2590.94 2114.27 2592.94 2109.6L2596.27 2101.33H2636H2675.6L2684.14 2122.27L2692.8 2143.33L2709.74 2143.73C2722.54 2144 2726.94 2143.6 2727.34 2142.4C2727.87 2140.93 2702 2078.67 2690.27 2053.33C2688.4 2049.33 2684.8 2040.93 2682.27 2034.67C2676.8 2021.6 2664 1991.47 2656.27 1974L2651.07 1962L2636.8 1961.6L2622.67 1961.2L2620.14 1966.93ZM2644.4 2020.93C2648.54 2031.87 2654.67 2047.73 2658 2056.4C2661.34 2065.2 2664 2072.8 2664 2073.47C2664 2074.13 2651.74 2074.67 2636 2074.67C2614.54 2074.67 2608 2074.27 2608 2072.93C2608 2072.13 2614 2055.73 2621.34 2036.8C2628.67 2017.73 2634.67 2002 2634.67 2001.73C2634.67 2001.47 2635.2 2001.33 2635.74 2001.33C2636.4 2001.33 2640.27 2010.13 2644.4 2020.93Z" fill="#132A3F"/>
<path d="M2209.33 2018.13C2198 2020.27 2176.8 2030.93 2175.07 2035.47C2174.67 2036.4 2177.73 2040.67 2181.87 2044.8L2189.2 2052.4L2195.6 2048.13C2214.13 2035.87 2241.33 2037.73 2248.53 2051.87C2249.6 2053.87 2250.67 2057.87 2250.93 2060.8L2251.33 2066L2233.33 2066.93C2185.87 2069.33 2166 2081.87 2166.13 2109.33C2166.13 2121.47 2169.07 2127.87 2178.13 2135.87C2186.27 2143.07 2195.87 2146 2210.67 2146C2226.27 2146 2234.4 2142.93 2243.87 2133.87C2247.87 2129.87 2251.33 2126.67 2251.6 2126.67C2251.87 2126.67 2252 2130.53 2252 2135.33V2144H2265.47H2278.8L2278.4 2096.93L2278 2050L2273.6 2041.07C2270.4 2034.53 2267.6 2030.93 2262.93 2027.6C2252.27 2019.87 2246.53 2018.27 2228.67 2017.87C2219.87 2017.73 2211.2 2017.87 2209.33 2018.13ZM2249.33 2095.33C2249.33 2109.07 2242.93 2118.67 2231.47 2122C2213.73 2127.33 2198.13 2121.33 2196.4 2108.53C2194.8 2096 2210.27 2088.67 2239.07 2088.13L2249.33 2088V2095.33Z" fill="#132A3F"/>
<path d="M2454.67 2018.53C2448 2020.67 2442.8 2024 2437.47 2030.13C2434.54 2033.6 2432 2036.93 2432 2037.47C2432 2038.13 2431.47 2038.67 2430.67 2038.67C2429.87 2038.67 2429.34 2034.67 2429.34 2029.33V2020H2415.34H2401.34V2082V2144.13L2416.27 2143.73L2431.2 2143.33L2431.74 2106C2432 2085.47 2432.8 2066.27 2433.6 2063.33C2434.4 2060.13 2437.07 2055.87 2440.54 2052.53C2451.07 2042 2466.8 2041.2 2475.6 2050.8C2482 2057.87 2482.67 2062.8 2482.67 2104.8V2144H2498.14H2513.47L2513.07 2096.27L2512.67 2048.67L2508 2039.33C2502.54 2028.67 2495.6 2022.53 2485.07 2019.33C2477.87 2017.2 2460.54 2016.8 2454.67 2018.53Z" fill="#132A3F"/>
<path d="M2889.2 2019.47C2883.2 2021.33 2873.47 2029.2 2869.07 2036C2866.8 2039.2 2866.8 2039.07 2866.8 2029.6L2866.67 2020H2851.33H2836V2082V2144H2851.33H2866.67V2108.53C2866.67 2084.4 2867.2 2071.2 2868.27 2067.47C2869.33 2064.13 2872.4 2059.6 2876.13 2055.73C2885.47 2046.4 2897.87 2043.6 2912.4 2047.6C2914.4 2048.13 2914.67 2046.8 2914.67 2033.6C2914.67 2021.47 2914.27 2018.8 2912.53 2018.13C2908.93 2016.67 2895.6 2017.47 2889.2 2019.47Z" fill="#132A3F"/>
<path d="M2324 2082V2144H2339.33H2354.67V2082V2020H2339.33H2324V2082Z" fill="#132A3F"/>
<path d="M2758.66 2082V2144H2774H2789.33V2082V2020H2774H2758.66V2082Z" fill="#132A3F"/>
</g>


<g filter="url(#filter0_gn_2_4)" id="wind">
<path class="wind1" d="M1928.02 1711C1928.02 1711 1924.02 1686.5 2024.02 1641C2124.02 1595.5 2242.1 1612.11 2343.52 1659.5C2444.95 1706.89 2610.02 1744 2705.02 1711C2800.02 1678 2845.96 1628.49 2889.02 1566C2932.08 1503.51 2947.59 1456.38 2952.02 1367C2955.45 1297.84 2914.05 1230.94 2868.02 1198"
stroke="#5BA4C9"
stroke-width="50"
stroke-linecap="round"
stroke-linejoin="round"
fill="none"/>


<path class="wind2" d="M2868.02 1198C2925 1198 3144.09 1468.03 2930.5 1718.5C2839.36 1823.6 2702.6 1840.27 2595 1832C2487.4 1823.73 2450 1809.44 2323.52 1770.44C2238 1729.23 2167.34 1731.97 2089.5 1745.94C2011.66 1759.92 1959.5 1832 1959.5 1832"
stroke="#5BA4C9"
stroke-width="50"
stroke-linecap="round"
stroke-linejoin="round"
fill="none"/>
</g>


<!-- wind -->
<!-- <g filter="url(#filter0_gn_2_4)" id="wind">
<path d="M1928.02 1711C1928.02 1711 1924.02 1686.5 2024.02 1641C2124.02 1595.5 2242.1 1612.11 2343.52 1659.5C2444.95 1706.89 2610.02 1744 2705.02 1711C2800.02 1678 2845.96 1628.49 2889.02 1566C2932.08 1503.51 2947.59 1456.38 2952.02 1367C2955.45 1297.84 2914.05 1230.94 
2868.02 1198C2925 1198 3144.09 1468.03 2930.5 1718.5C2839.36 1823.6 2702.6 1840.27 2595 1832C2487.4 1823.73 2450 1809.44 2323.52 1770.44C2238 1729.23 2167.34 1731.97 2089.5 1745.94C2011.66 1759.92 1959.5 1832 1959.5 1832" stroke="#5BA4C9" stroke-width="50" stroke-linecap="round" stroke-linejoin="round"/>
</g> -->

<!-- Climatisation -->
<g id="text">
<path d="M2143.34 2225.07C2136.94 2228.13 2134.14 2231.07 2131.34 2237.73C2128.67 2244.27 2128.8 2252.8 2131.87 2259.47C2137.34 2271.47 2152.8 2276.27 2165.47 2269.87C2171.6 2266.8 2172.54 2264.67 2168.67 2262.13C2165.47 2260 2165.07 2260 2161.74 2262.67C2150.27 2271.73 2134 2257.87 2138.54 2242.8C2141.6 2232.53 2154.27 2227.07 2162.27 2232.67C2164.8 2234.4 2165.34 2234.4 2168 2232.27L2171.07 2229.73L2166.8 2226.8C2160.94 2222.53 2150.27 2221.87 2143.34 2225.07Z" fill="#132A3F"/>
<path d="M2488 2225.07C2475.73 2231.2 2478.26 2246.4 2492.26 2250.53C2498.93 2252.53 2502.66 2255.47 2502.66 2258.8C2502.66 2264.8 2493.06 2267.47 2486.8 2263.2C2483.86 2261.07 2483.6 2261.2 2480.93 2263.87C2478 2266.8 2478 2266.8 2480.66 2268.8C2484.66 2271.87 2492.93 2273.6 2498.26 2272.53C2505.86 2271.07 2510.66 2265.6 2510.66 2258.4C2510.53 2250.93 2508.8 2248.8 2498.4 2244.13C2488.93 2239.87 2487.2 2237.73 2490.13 2233.47C2492.4 2230.4 2498.4 2229.73 2502.93 2232.13C2505.2 2233.33 2506.13 2233.07 2508.26 2230.93C2511.6 2227.6 2510.66 2225.87 2504.26 2224C2497.2 2222.13 2493.33 2222.27 2488 2225.07Z" fill="#132A3F"/>
<path d="M2683.33 2224.53C2674.53 2227.87 2668 2237.73 2668 2248C2668 2264.53 2683.73 2276.4 2700 2272C2708.53 2269.73 2716.8 2260.8 2718 2252.8C2719.73 2241.73 2714.8 2230.13 2706.53 2225.87C2700.67 2222.93 2689.73 2222.27 2683.33 2224.53ZM2703.87 2234.13C2709.87 2239.07 2711.6 2246.4 2708.8 2253.73C2705.47 2262.53 2702.53 2264.67 2693.33 2264.67C2684 2264.67 2679.47 2261.33 2677.2 2252.8C2674 2241.07 2681.6 2230.67 2693.33 2230.67C2698.27 2230.67 2700.67 2231.47 2703.87 2234.13Z" fill="#132A3F"/>
<path d="M2190.66 2248V2272H2204.66H2218.66V2268V2264H2208.66H2198.66V2244V2224H2194.66H2190.66V2248Z" fill="#132A3F"/>
<path d="M2239.33 2225.2C2238.93 2225.87 2238.66 2234.53 2238.8 2244.27C2238.93 2254 2238.53 2264.27 2238 2266.93C2237.06 2271.87 2237.06 2272 2241.2 2272H2245.33V2248C2245.33 2225.07 2245.2 2224 2242.8 2224C2241.33 2224 2239.86 2224.53 2239.33 2225.2Z" fill="#132A3F"/>
<path d="M2269.34 2247.87V2272H2272.67H2275.87L2276.27 2251.6C2276.54 2240.53 2277.07 2232.27 2277.6 2233.33C2278.14 2234.4 2281.47 2243.47 2285.07 2253.33C2290.27 2267.87 2292.14 2271.47 2294.4 2271.73C2297.34 2272.13 2296.8 2273.33 2306.8 2245.73C2309.34 2238.93 2311.6 2233.33 2312 2233.33C2312.4 2233.33 2312.67 2241.87 2312.67 2252.27V2271.33L2316.4 2271.73L2320 2272.13V2248V2223.87L2313.74 2224.27L2307.6 2224.67L2301.47 2240.27C2298 2248.8 2294.94 2256.13 2294.67 2256.53C2294.27 2256.93 2291.2 2249.87 2287.74 2240.93L2281.6 2224.67L2275.47 2224.27L2269.34 2223.87V2247.87Z" fill="#132A3F"/>
<path d="M2358.8 2226.93C2356.27 2233.33 2342.54 2264.8 2341.34 2266.93C2339.2 2270.8 2339.74 2272 2344.14 2272C2347.6 2272 2348.54 2271.33 2350.27 2266.67C2351.47 2263.73 2353.07 2261.33 2353.87 2261.2C2354.67 2261.2 2359.47 2261.07 2364.67 2261.07H2373.87L2376.27 2266.53C2378.27 2271.47 2379.07 2272 2383.2 2272H2387.87L2383.74 2262.27C2381.47 2257.07 2377.07 2246.8 2373.87 2239.6C2370.67 2232.53 2368 2226 2368 2225.33C2368 2224.53 2366.14 2224 2364 2224C2361.07 2224 2359.6 2224.8 2358.8 2226.93ZM2367.74 2244.8C2369.34 2249.33 2370.67 2253.33 2370.67 2253.73C2370.67 2254.13 2367.47 2254.27 2363.74 2254.13C2359.87 2253.87 2356.67 2253.2 2356.67 2252.53C2356.67 2249.6 2363.2 2234.67 2364 2235.6C2364.54 2236.13 2366.14 2240.27 2367.74 2244.8Z" fill="#132A3F"/>
<path d="M2394.66 2228.13V2232.27L2401.73 2231.73L2408.66 2231.33L2409.06 2251.6L2409.46 2272H2413.33H2417.2L2417.6 2251.6L2418 2231.33H2425.06C2431.73 2231.47 2432 2231.33 2432 2227.73V2224H2413.33H2394.66V2228.13Z" fill="#132A3F"/>
<path d="M2450.66 2248V2272H2454.66H2458.66V2248V2224H2454.66H2450.66V2248Z" fill="#132A3F"/>
<path d="M2538.13 2246.93C2532.53 2259.6 2528 2270.4 2528 2270.93C2528 2271.6 2529.87 2272 2532.13 2272C2535.6 2272 2536.53 2271.33 2538.27 2266.67C2540.53 2260.93 2540.4 2260.93 2553.87 2260.8L2561.73 2260.67L2564.27 2266.27C2566.53 2271.33 2567.33 2272 2571.2 2272H2575.73L2565.6 2248C2556 2225.73 2555.07 2224 2551.87 2224C2548.53 2224 2547.6 2225.6 2538.13 2246.93ZM2555.47 2243.6C2557.2 2247.87 2558.67 2252.13 2558.67 2252.93C2558.67 2254.93 2545.87 2255.33 2544.67 2253.47C2543.87 2252 2550.8 2234.27 2551.73 2235.33C2552.13 2235.6 2553.73 2239.47 2555.47 2243.6Z" fill="#132A3F"/>
<path d="M2582.93 2227.6C2583.33 2230.93 2583.86 2231.07 2590 2231.2L2596.66 2231.33L2597.06 2251.6L2597.46 2272H2601.33H2605.2L2605.6 2251.6L2606 2231.33H2613.06C2619.73 2231.47 2620 2231.33 2620 2227.73V2224H2601.2H2582.53L2582.93 2227.6Z" fill="#132A3F"/>
<path d="M2640 2246.67C2640 2259.07 2639.87 2269.73 2639.74 2270.27C2639.47 2270.93 2641.34 2271.47 2643.74 2271.73L2648.14 2272.13L2647.87 2248.13L2647.6 2224H2643.87H2640V2246.67Z" fill="#132A3F"/>
<path d="M2740 2248V2272H2744H2747.87L2748.27 2253.87L2748.67 2235.6L2760.13 2253.47C2771.6 2271.33 2771.6 2271.33 2777.2 2271.73L2782.67 2272.13V2248.13V2224H2778.67H2774.8L2774.4 2242L2774 2260L2762.13 2242L2750.4 2224H2745.2H2740V2248Z" fill="#132A3F"/>
</g>

<!-- little Snowflakes -->
<g id="littleSnowflakes">
<path d="M2864.28 2224.2C2864.08 2224.3 2863.86 2224.55 2863.76 2224.72C2863.57 2225.09 2863.54 2226.16 2863.69 2226.95C2863.86 2227.71 2863.91 2231.37 2863.77 2231.37C2863.63 2231.37 2862.48 2230.29 2861.14 2228.9C2860.59 2228.33 2860.01 2227.82 2859.82 2227.76C2859.01 2227.49 2858.07 2228.57 2858.31 2229.51C2858.35 2229.66 2858.98 2230.4 2859.72 2231.14C2861.96 2233.42 2863.27 2234.83 2863.56 2235.31L2863.83 2235.76L2863.89 2240.54C2863.92 2243.17 2863.91 2245.44 2863.88 2245.58C2863.77 2245.98 2863.45 2245.89 2862.89 2245.26C2862.03 2244.35 2860.81 2243.08 2859.42 2241.66C2855.65 2237.81 2855.77 2237.99 2855.64 2236.05C2855.59 2235.27 2855.49 2234.06 2855.44 2233.36C2855.37 2232.65 2855.33 2231.8 2855.33 2231.48C2855.33 2230.84 2855.08 2230.3 2854.69 2230.09C2854.43 2229.96 2853.57 2229.92 2853.37 2230.03C2852.91 2230.31 2852.74 2231.79 2852.94 2233.99C2853 2234.85 2853.05 2235.58 2853.03 2235.6C2852.93 2235.71 2850.11 2232.24 2849.61 2231.4C2849.23 2230.73 2848.2 2230.43 2847.52 2230.77C2846.91 2231.08 2846.6 2231.54 2846.54 2232.17C2846.52 2232.49 2846.52 2232.92 2846.57 2233.12C2846.66 2233.63 2847.28 2234.2 2848.08 2234.49C2848.58 2234.67 2848.97 2234.94 2849.66 2235.58C2850.19 2236.05 2850.86 2236.6 2851.18 2236.8C2851.73 2237.18 2851.87 2237.41 2851.61 2237.51C2851.54 2237.53 2850.49 2237.53 2849.3 2237.5C2846.65 2237.44 2846.15 2237.53 2845.84 2238.15C2845.42 2238.96 2845.65 2239.81 2846.34 2240.04C2846.52 2240.11 2848.2 2240.21 2850.11 2240.26C2854.4 2240.39 2854.34 2240.39 2854.86 2240.88C2855.1 2241.1 2856.36 2242.3 2857.68 2243.55C2858.98 2244.79 2860.26 2245.97 2860.5 2246.15C2861.18 2246.69 2862.07 2247.54 2862.07 2247.64C2862.07 2247.85 2860.31 2247.9 2855.92 2247.84C2850.96 2247.77 2851.02 2247.78 2850.32 2247.04C2848.57 2245.22 2845.89 2242.69 2845.54 2242.51C2844.99 2242.23 2844.97 2242.23 2844.53 2242.62C2844.06 2243.02 2843.87 2243.48 2843.96 2243.94C2844.05 2244.46 2845.3 2245.93 2846.36 2246.76C2846.86 2247.17 2847.27 2247.56 2847.28 2247.63C2847.28 2247.75 2846.74 2247.77 2844.33 2247.75C2841.02 2247.73 2840.99 2247.73 2840.33 2248.47C2839.69 2249.18 2839.99 2249.95 2841.12 2250.48C2841.66 2250.74 2841.7 2250.75 2842.44 2250.61C2843.66 2250.37 2847.28 2250.34 2847.28 2250.56C2847.28 2250.73 2845.84 2252.24 2844.88 2253.05C2843.74 2254.04 2843.68 2254.16 2844.05 2254.87C2844.33 2255.39 2844.95 2255.9 2845.29 2255.9C2845.35 2255.9 2846.08 2255.19 2846.9 2254.31C2848.65 2252.48 2850.99 2250.44 2851.34 2250.44C2854.16 2250.43 2859.41 2250.33 2860.42 2250.27C2861.54 2250.2 2861.75 2250.21 2861.75 2250.34C2861.75 2250.43 2861.32 2250.98 2860.8 2251.56C2859.77 2252.73 2855.1 2257.35 2854.79 2257.51C2854.61 2257.6 2852.54 2257.72 2847.83 2257.92C2846.96 2257.96 2846.18 2258.03 2846.11 2258.07C2845.89 2258.21 2845.54 2258.97 2845.54 2259.29C2845.54 2259.68 2845.79 2260.03 2846.22 2260.25C2846.49 2260.39 2846.94 2260.41 2848.9 2260.4C2850.2 2260.39 2851.31 2260.38 2851.38 2260.39C2851.67 2260.41 2851.33 2260.86 2850.23 2261.92C2848.99 2263.1 2848.56 2263.43 2847.37 2264.07C2846.79 2264.39 2846.61 2264.55 2846.42 2264.93C2846.29 2265.19 2846.2 2265.5 2846.2 2265.62C2846.2 2266.03 2846.71 2266.87 2847.11 2267.12C2848.03 2267.73 2848.77 2267.35 2849.93 2265.67C2850.4 2264.97 2850.87 2264.43 2851.17 2264.22C2851.43 2264.03 2851.88 2263.7 2852.18 2263.47C2852.47 2263.26 2852.74 2263.08 2852.77 2263.08C2852.81 2263.08 2852.81 2263.92 2852.77 2264.96C2852.71 2267.12 2852.76 2267.32 2853.55 2267.68C2854.15 2267.97 2854.58 2267.87 2854.97 2267.37C2855.31 2266.94 2855.33 2266.75 2855.53 2261.94C2855.6 2260.06 2855.61 2259.99 2855.9 2259.63C2856.06 2259.41 2856.32 2259.22 2856.46 2259.18C2856.64 2259.13 2856.91 2258.88 2857.17 2258.49C2857.41 2258.16 2857.73 2257.75 2857.91 2257.59C2859.4 2256.18 2860.54 2254.96 2860.45 2254.88C2860.43 2254.85 2860.49 2254.83 2860.57 2254.83C2860.66 2254.83 2861.37 2254.24 2862.13 2253.51C2862.89 2252.79 2863.58 2252.19 2863.66 2252.17C2863.79 2252.14 2863.81 2252.97 2863.81 2257.22V2262.3L2862.62 2263.46C2861.95 2264.1 2861.27 2264.84 2861.07 2265.1C2860.89 2265.36 2860.17 2266.14 2859.5 2266.83C2858.33 2268.03 2858.27 2268.12 2858.27 2268.55C2858.27 2268.92 2858.33 2269.05 2858.69 2269.41C2859.03 2269.74 2859.19 2269.82 2859.51 2269.82C2859.88 2269.82 2860.04 2269.69 2861.76 2268C2862.78 2267 2863.65 2266.18 2863.69 2266.18C2863.78 2266.18 2863.76 2269.83 2863.65 2271.48C2863.57 2272.73 2863.58 2272.78 2863.83 2273.14C2864.17 2273.63 2864.74 2274 2865.15 2274C2866.07 2274 2866.88 2272.8 2866.53 2271.92C2866.25 2271.18 2866.18 2266.29 2866.46 2266.29C2866.51 2266.29 2867.14 2266.89 2867.86 2267.62C2869.36 2269.17 2870.07 2269.72 2870.65 2269.79C2871.01 2269.83 2871.11 2269.8 2871.36 2269.54C2871.52 2269.37 2871.73 2269.07 2871.81 2268.88C2871.95 2268.56 2871.95 2268.48 2871.75 2268.13C2871.64 2267.92 2870.5 2266.68 2869.23 2265.41C2867.96 2264.14 2866.8 2262.98 2866.66 2262.83L2866.41 2262.57L2866.36 2257.92C2866.34 2255.36 2866.28 2253.12 2866.25 2252.92C2866.22 2252.73 2866.23 2252.53 2866.26 2252.46C2866.3 2252.41 2866.78 2252.8 2867.34 2253.35C2867.89 2253.9 2868.8 2254.75 2869.36 2255.26C2869.91 2255.76 2871.23 2256.98 2872.28 2257.99C2873.93 2259.55 2874.22 2259.87 2874.34 2260.29C2874.44 2260.59 2874.52 2261.9 2874.6 2263.77C2874.72 2267.06 2874.7 2266.97 2875.47 2267.54C2875.89 2267.84 2876.34 2267.85 2876.81 2267.57C2877.42 2267.21 2877.52 2266.7 2877.41 2264.65C2877.35 2263.81 2877.35 2263.09 2877.4 2263.04C2877.56 2262.87 2879.77 2264.99 2880.55 2266.05C2881.63 2267.53 2882.09 2267.75 2882.93 2267.15C2883.5 2266.74 2883.71 2266.25 2883.71 2265.34C2883.71 2264.46 2883.64 2264.37 2882.35 2263.56C2881.82 2263.21 2880.98 2262.56 2880.51 2262.11C2880.03 2261.66 2879.42 2261.15 2879.15 2260.98C2878.66 2260.67 2878.49 2260.52 2878.49 2260.37C2878.49 2260.32 2879.67 2260.29 2881.09 2260.29C2884.18 2260.29 2884.16 2260.3 2884.24 2259.25C2884.28 2258.66 2884.26 2258.58 2883.97 2258.27C2883.67 2257.93 2883.63 2257.92 2882.63 2257.88C2878.71 2257.7 2876.95 2257.6 2876.48 2257.55C2875.31 2257.41 2874.98 2257.15 2870.79 2253.09C2869.19 2251.53 2868.27 2250.57 2868.29 2250.45C2868.33 2250.3 2868.5 2250.28 2869.52 2250.28C2870.19 2250.28 2871.13 2250.32 2871.64 2250.36C2872.16 2250.41 2873.9 2250.39 2875.62 2250.32C2877.46 2250.24 2878.74 2250.23 2878.85 2250.29C2878.95 2250.34 2879.26 2250.67 2879.53 2251.03C2880.39 2252.13 2883.79 2255.44 2884.32 2255.7C2885.02 2256.02 2885.4 2255.9 2885.87 2255.2C2886.06 2254.9 2886.25 2254.56 2886.28 2254.43C2886.37 2254.1 2885.82 2253.47 2884.39 2252.24C2882.58 2250.68 2882.38 2250.48 2882.45 2250.34C2882.5 2250.28 2882.71 2250.22 2882.93 2250.22C2883.88 2250.22 2887 2250.47 2887.8 2250.61C2888.97 2250.81 2889.25 2250.72 2889.69 2249.96C2890.09 2249.27 2890.1 2249.06 2889.75 2248.47C2889.54 2248.11 2889.37 2247.97 2888.96 2247.84C2888.48 2247.66 2888.18 2247.65 2885.71 2247.75C2884.05 2247.81 2882.96 2247.81 2882.9 2247.75C2882.83 2247.69 2883.07 2247.41 2883.55 2246.98C2885.5 2245.28 2886.28 2244.14 2886.01 2243.45C2885.95 2243.32 2885.75 2243.05 2885.56 2242.85C2885.09 2242.39 2884.5 2242.37 2884.15 2242.8C2884.03 2242.96 2883.05 2243.98 2882 2245.06C2880.94 2246.14 2879.98 2247.17 2879.88 2247.34C2879.76 2247.51 2879.61 2247.66 2879.55 2247.66C2879.47 2247.67 2878.24 2247.7 2876.81 2247.71C2875.37 2247.72 2873.71 2247.79 2873.12 2247.87C2872.03 2248.01 2868.75 2247.96 2868.36 2247.81C2868.25 2247.77 2868.16 2247.65 2868.16 2247.56C2868.16 2247.34 2868.82 2246.7 2869.35 2246.39C2869.54 2246.27 2869.91 2245.89 2870.16 2245.53C2870.78 2244.65 2871.09 2244.32 2871.6 2243.98C2872.07 2243.67 2872.3 2243.43 2873 2242.57C2873.61 2241.81 2874.95 2240.61 2875.25 2240.53C2875.39 2240.51 2877.27 2240.47 2879.42 2240.46C2882.99 2240.42 2883.37 2240.4 2883.64 2240.23C2884.49 2239.68 2884.59 2238.53 2883.87 2237.9C2883.64 2237.7 2882.89 2237.63 2880.09 2237.52C2878.67 2237.46 2878.41 2237.42 2878.5 2237.31C2878.57 2237.22 2878.69 2237.16 2878.77 2237.16C2878.93 2237.16 2879.37 2236.66 2880.23 2235.56C2880.89 2234.72 2881.34 2234.37 2881.82 2234.37C2882.27 2234.36 2883.01 2234.01 2883.21 2233.71C2883.56 2233.17 2883.72 2232.54 2883.59 2232.16C2883.33 2231.36 2882.59 2230.84 2881.75 2230.84C2881.25 2230.84 2880.91 2231.13 2879.99 2232.34C2879.66 2232.78 2879.04 2233.47 2878.6 2233.89C2878.18 2234.3 2877.66 2234.87 2877.44 2235.14C2876.92 2235.85 2876.82 2235.81 2876.91 2234.93C2876.96 2234.53 2877 2234 2877.01 2233.73C2877.04 2233.46 2877.08 2232.74 2877.12 2232.12C2877.21 2230.78 2877.07 2230.38 2876.4 2230.05C2876 2229.86 2875.96 2229.86 2875.49 2230.03C2875.13 2230.16 2874.95 2230.32 2874.75 2230.66C2874.43 2231.23 2874.37 2231.65 2874.35 2233.94C2874.33 2236.47 2874.21 2237.67 2873.94 2238.29C2873.76 2238.67 2873.17 2239.34 2871.72 2240.78C2867.26 2245.24 2866.41 2246.05 2866.36 2245.91C2866.34 2245.83 2866.32 2243.43 2866.34 2240.58L2866.37 2235.39L2866.69 2234.96C2867.88 2233.4 2869.09 2232.13 2870.15 2231.3C2870.5 2231.03 2871.06 2230.55 2871.38 2230.23C2872.02 2229.6 2872.11 2229.27 2871.82 2228.71C2871.6 2228.29 2870.93 2227.73 2870.64 2227.73C2870.31 2227.73 2869.55 2228.39 2868.87 2229.27C2868.54 2229.7 2867.89 2230.39 2867.43 2230.8C2866.97 2231.2 2866.51 2231.63 2866.4 2231.75C2866.15 2232.04 2865.96 2231.84 2866.09 2231.43C2866.13 2231.25 2866.17 2230.47 2866.18 2229.71C2866.19 2228.94 2866.26 2227.57 2866.34 2226.65L2866.46 2224.99L2866.21 2224.65C2865.73 2224.01 2864.91 2223.81 2864.28 2224.2Z" fill="#5BA4C9"/>
<path d="M2053.28 2224.2C2053.08 2224.3 2052.86 2224.55 2052.76 2224.72C2052.57 2225.09 2052.54 2226.16 2052.69 2226.95C2052.86 2227.71 2052.91 2231.37 2052.77 2231.37C2052.63 2231.37 2051.48 2230.29 2050.14 2228.9C2049.59 2228.33 2049.01 2227.82 2048.82 2227.76C2048.01 2227.49 2047.07 2228.57 2047.31 2229.51C2047.35 2229.66 2047.98 2230.4 2048.72 2231.14C2050.96 2233.42 2052.27 2234.83 2052.56 2235.31L2052.83 2235.76L2052.89 2240.54C2052.92 2243.17 2052.91 2245.44 2052.88 2245.58C2052.77 2245.98 2052.45 2245.89 2051.89 2245.26C2051.03 2244.35 2049.81 2243.08 2048.42 2241.66C2044.65 2237.81 2044.77 2237.99 2044.64 2236.05C2044.59 2235.27 2044.49 2234.06 2044.44 2233.36C2044.37 2232.65 2044.33 2231.8 2044.33 2231.48C2044.33 2230.84 2044.08 2230.3 2043.69 2230.09C2043.43 2229.96 2042.57 2229.92 2042.37 2230.03C2041.91 2230.31 2041.74 2231.79 2041.94 2233.99C2042 2234.85 2042.05 2235.58 2042.03 2235.6C2041.93 2235.71 2039.11 2232.24 2038.61 2231.4C2038.23 2230.73 2037.2 2230.43 2036.52 2230.77C2035.91 2231.08 2035.6 2231.54 2035.54 2232.17C2035.52 2232.49 2035.52 2232.92 2035.57 2233.12C2035.66 2233.63 2036.28 2234.2 2037.08 2234.49C2037.58 2234.67 2037.97 2234.94 2038.66 2235.58C2039.19 2236.05 2039.86 2236.6 2040.18 2236.8C2040.73 2237.18 2040.87 2237.41 2040.61 2237.51C2040.54 2237.53 2039.49 2237.53 2038.3 2237.5C2035.65 2237.44 2035.15 2237.53 2034.84 2238.15C2034.42 2238.96 2034.65 2239.81 2035.34 2240.04C2035.52 2240.11 2037.2 2240.21 2039.11 2240.26C2043.4 2240.39 2043.34 2240.39 2043.86 2240.88C2044.1 2241.1 2045.36 2242.3 2046.68 2243.55C2047.98 2244.79 2049.26 2245.97 2049.5 2246.15C2050.18 2246.69 2051.07 2247.54 2051.07 2247.64C2051.07 2247.85 2049.31 2247.9 2044.92 2247.84C2039.96 2247.77 2040.02 2247.78 2039.32 2247.04C2037.57 2245.22 2034.89 2242.69 2034.54 2242.51C2033.99 2242.23 2033.97 2242.23 2033.53 2242.62C2033.06 2243.02 2032.87 2243.48 2032.96 2243.94C2033.05 2244.46 2034.3 2245.93 2035.36 2246.76C2035.86 2247.17 2036.27 2247.56 2036.28 2247.63C2036.28 2247.75 2035.74 2247.77 2033.33 2247.75C2030.02 2247.73 2029.99 2247.73 2029.33 2248.47C2028.69 2249.18 2028.99 2249.95 2030.12 2250.48C2030.66 2250.74 2030.7 2250.75 2031.44 2250.61C2032.66 2250.37 2036.28 2250.34 2036.28 2250.56C2036.28 2250.73 2034.84 2252.24 2033.88 2253.05C2032.74 2254.04 2032.68 2254.16 2033.05 2254.87C2033.33 2255.39 2033.95 2255.9 2034.29 2255.9C2034.35 2255.9 2035.08 2255.19 2035.9 2254.31C2037.65 2252.48 2039.99 2250.44 2040.34 2250.44C2043.16 2250.43 2048.41 2250.33 2049.42 2250.27C2050.54 2250.2 2050.75 2250.21 2050.75 2250.34C2050.75 2250.43 2050.32 2250.98 2049.8 2251.56C2048.77 2252.73 2044.1 2257.35 2043.79 2257.51C2043.61 2257.6 2041.54 2257.72 2036.83 2257.92C2035.96 2257.96 2035.18 2258.03 2035.11 2258.07C2034.89 2258.21 2034.54 2258.97 2034.54 2259.29C2034.54 2259.68 2034.79 2260.03 2035.22 2260.25C2035.49 2260.39 2035.94 2260.41 2037.9 2260.4C2039.2 2260.39 2040.31 2260.38 2040.38 2260.39C2040.67 2260.41 2040.33 2260.86 2039.23 2261.92C2037.99 2263.1 2037.56 2263.43 2036.37 2264.07C2035.79 2264.39 2035.61 2264.55 2035.42 2264.93C2035.29 2265.19 2035.2 2265.5 2035.2 2265.62C2035.2 2266.03 2035.71 2266.87 2036.11 2267.12C2037.03 2267.73 2037.77 2267.35 2038.93 2265.67C2039.4 2264.97 2039.87 2264.43 2040.17 2264.22C2040.43 2264.03 2040.88 2263.7 2041.18 2263.47C2041.47 2263.26 2041.74 2263.08 2041.77 2263.08C2041.81 2263.08 2041.81 2263.92 2041.77 2264.96C2041.71 2267.12 2041.76 2267.32 2042.55 2267.68C2043.15 2267.97 2043.58 2267.87 2043.97 2267.37C2044.31 2266.94 2044.33 2266.75 2044.53 2261.94C2044.6 2260.06 2044.61 2259.99 2044.9 2259.63C2045.06 2259.41 2045.32 2259.22 2045.46 2259.18C2045.64 2259.13 2045.91 2258.88 2046.17 2258.49C2046.41 2258.16 2046.73 2257.75 2046.91 2257.59C2048.4 2256.18 2049.54 2254.96 2049.45 2254.88C2049.43 2254.85 2049.49 2254.83 2049.57 2254.83C2049.66 2254.83 2050.37 2254.24 2051.13 2253.51C2051.89 2252.79 2052.58 2252.19 2052.66 2252.17C2052.79 2252.14 2052.81 2252.97 2052.81 2257.22V2262.3L2051.62 2263.46C2050.95 2264.1 2050.27 2264.84 2050.07 2265.1C2049.89 2265.36 2049.17 2266.14 2048.5 2266.83C2047.33 2268.03 2047.27 2268.12 2047.27 2268.55C2047.27 2268.92 2047.33 2269.05 2047.69 2269.41C2048.03 2269.74 2048.19 2269.82 2048.51 2269.82C2048.88 2269.82 2049.04 2269.69 2050.76 2268C2051.78 2267 2052.65 2266.18 2052.69 2266.18C2052.78 2266.18 2052.76 2269.83 2052.65 2271.48C2052.57 2272.73 2052.58 2272.78 2052.83 2273.14C2053.17 2273.63 2053.74 2274 2054.15 2274C2055.07 2274 2055.88 2272.8 2055.53 2271.92C2055.25 2271.18 2055.18 2266.29 2055.46 2266.29C2055.51 2266.29 2056.14 2266.89 2056.86 2267.62C2058.36 2269.17 2059.07 2269.72 2059.65 2269.79C2060.01 2269.83 2060.11 2269.8 2060.36 2269.54C2060.52 2269.37 2060.73 2269.07 2060.81 2268.88C2060.95 2268.56 2060.95 2268.48 2060.75 2268.13C2060.64 2267.92 2059.5 2266.68 2058.23 2265.41C2056.96 2264.14 2055.8 2262.98 2055.66 2262.83L2055.41 2262.57L2055.36 2257.92C2055.34 2255.36 2055.28 2253.12 2055.25 2252.92C2055.22 2252.73 2055.23 2252.53 2055.26 2252.46C2055.3 2252.41 2055.78 2252.8 2056.34 2253.35C2056.89 2253.9 2057.8 2254.75 2058.36 2255.26C2058.91 2255.76 2060.23 2256.98 2061.28 2257.99C2062.93 2259.55 2063.22 2259.87 2063.34 2260.29C2063.44 2260.59 2063.52 2261.9 2063.6 2263.77C2063.72 2267.06 2063.7 2266.97 2064.47 2267.54C2064.89 2267.84 2065.34 2267.85 2065.81 2267.57C2066.42 2267.21 2066.52 2266.7 2066.41 2264.65C2066.35 2263.81 2066.35 2263.09 2066.4 2263.04C2066.56 2262.87 2068.77 2264.99 2069.55 2266.05C2070.63 2267.53 2071.09 2267.75 2071.93 2267.15C2072.5 2266.74 2072.71 2266.25 2072.71 2265.34C2072.71 2264.46 2072.64 2264.37 2071.35 2263.56C2070.82 2263.21 2069.98 2262.56 2069.51 2262.11C2069.03 2261.66 2068.42 2261.15 2068.15 2260.98C2067.66 2260.67 2067.49 2260.52 2067.49 2260.37C2067.49 2260.32 2068.67 2260.29 2070.09 2260.29C2073.18 2260.29 2073.16 2260.3 2073.24 2259.25C2073.28 2258.66 2073.26 2258.58 2072.97 2258.27C2072.67 2257.93 2072.63 2257.92 2071.63 2257.88C2067.71 2257.7 2065.95 2257.6 2065.48 2257.55C2064.31 2257.41 2063.98 2257.15 2059.79 2253.09C2058.19 2251.53 2057.27 2250.57 2057.29 2250.45C2057.33 2250.3 2057.5 2250.28 2058.52 2250.28C2059.19 2250.28 2060.13 2250.32 2060.64 2250.36C2061.16 2250.41 2062.9 2250.39 2064.62 2250.32C2066.46 2250.24 2067.74 2250.23 2067.85 2250.29C2067.95 2250.34 2068.26 2250.67 2068.53 2251.03C2069.39 2252.13 2072.79 2255.44 2073.32 2255.7C2074.02 2256.02 2074.4 2255.9 2074.87 2255.2C2075.06 2254.9 2075.25 2254.56 2075.28 2254.43C2075.37 2254.1 2074.82 2253.47 2073.39 2252.24C2071.58 2250.68 2071.38 2250.48 2071.45 2250.34C2071.5 2250.28 2071.71 2250.22 2071.93 2250.22C2072.88 2250.22 2076 2250.47 2076.8 2250.61C2077.97 2250.81 2078.25 2250.72 2078.69 2249.96C2079.09 2249.27 2079.1 2249.06 2078.75 2248.47C2078.54 2248.11 2078.37 2247.97 2077.96 2247.84C2077.48 2247.66 2077.18 2247.65 2074.71 2247.75C2073.05 2247.81 2071.96 2247.81 2071.9 2247.75C2071.83 2247.69 2072.07 2247.41 2072.55 2246.98C2074.5 2245.28 2075.28 2244.14 2075.01 2243.45C2074.95 2243.32 2074.75 2243.05 2074.56 2242.85C2074.09 2242.39 2073.5 2242.37 2073.15 2242.8C2073.03 2242.96 2072.05 2243.98 2071 2245.06C2069.94 2246.14 2068.98 2247.17 2068.88 2247.34C2068.76 2247.51 2068.61 2247.66 2068.55 2247.66C2068.47 2247.67 2067.24 2247.7 2065.81 2247.71C2064.37 2247.72 2062.71 2247.79 2062.12 2247.87C2061.03 2248.01 2057.75 2247.96 2057.36 2247.81C2057.25 2247.77 2057.16 2247.65 2057.16 2247.56C2057.16 2247.34 2057.82 2246.7 2058.35 2246.39C2058.54 2246.27 2058.91 2245.89 2059.16 2245.53C2059.78 2244.65 2060.09 2244.32 2060.6 2243.98C2061.07 2243.67 2061.3 2243.43 2062 2242.57C2062.61 2241.81 2063.95 2240.61 2064.25 2240.53C2064.39 2240.51 2066.27 2240.47 2068.42 2240.46C2071.99 2240.42 2072.37 2240.4 2072.64 2240.23C2073.49 2239.68 2073.59 2238.53 2072.87 2237.9C2072.64 2237.7 2071.89 2237.63 2069.09 2237.52C2067.67 2237.46 2067.41 2237.42 2067.5 2237.31C2067.57 2237.22 2067.69 2237.16 2067.77 2237.16C2067.93 2237.16 2068.37 2236.66 2069.23 2235.56C2069.89 2234.72 2070.34 2234.37 2070.82 2234.37C2071.27 2234.36 2072.01 2234.01 2072.21 2233.71C2072.56 2233.17 2072.72 2232.54 2072.59 2232.16C2072.33 2231.36 2071.59 2230.84 2070.75 2230.84C2070.25 2230.84 2069.91 2231.13 2068.99 2232.34C2068.66 2232.78 2068.04 2233.47 2067.6 2233.89C2067.18 2234.3 2066.66 2234.87 2066.44 2235.14C2065.92 2235.85 2065.82 2235.81 2065.91 2234.93C2065.96 2234.53 2066 2234 2066.01 2233.73C2066.04 2233.46 2066.08 2232.74 2066.12 2232.12C2066.21 2230.78 2066.07 2230.38 2065.4 2230.05C2065 2229.86 2064.96 2229.86 2064.49 2230.03C2064.13 2230.16 2063.95 2230.32 2063.75 2230.66C2063.43 2231.23 2063.37 2231.65 2063.35 2233.94C2063.33 2236.47 2063.21 2237.67 2062.94 2238.29C2062.76 2238.67 2062.17 2239.34 2060.72 2240.78C2056.26 2245.24 2055.41 2246.05 2055.36 2245.91C2055.34 2245.83 2055.32 2243.43 2055.34 2240.58L2055.37 2235.39L2055.69 2234.96C2056.88 2233.4 2058.09 2232.13 2059.15 2231.3C2059.5 2231.03 2060.06 2230.55 2060.38 2230.23C2061.02 2229.6 2061.11 2229.27 2060.82 2228.71C2060.6 2228.29 2059.93 2227.73 2059.64 2227.73C2059.31 2227.73 2058.55 2228.39 2057.87 2229.27C2057.54 2229.7 2056.89 2230.39 2056.43 2230.8C2055.97 2231.2 2055.51 2231.63 2055.4 2231.75C2055.15 2232.04 2054.96 2231.84 2055.09 2231.43C2055.13 2231.25 2055.17 2230.47 2055.18 2229.71C2055.19 2228.94 2055.26 2227.57 2055.34 2226.65L2055.46 2224.99L2055.21 2224.65C2054.73 2224.01 2053.91 2223.81 2053.28 2224.2Z" fill="#5BA4C9"/>
</g>

<defs>
<filter id="filter0_gn_2_4" x="1897.1" y="1167.1" width="1155.92" height="697.626" filterUnits="userSpaceOnUse" color-interpolation-filters="sRGB">
<feFlood flood-opacity="0" result="BackgroundImageFix"/>
<feBlend mode="normal" in="SourceGraphic" in2="BackgroundImageFix" result="shape"/>
<feTurbulence type="fractalNoise" baseFrequency="0.62893080711364746 0.62893080711364746" numOctaves="3" seed="548" />
<feDisplacementMap in="shape" scale="11.800000190734863" xChannelSelector="R" yChannelSelector="G" result="displacedImage" width="100%" height="100%" />
<feMerge result="effect1_texture_2_4">
<feMergeNode in="displacedImage"/>
</feMerge>
<feTurbulence type="fractalNoise" baseFrequency="2.6315789222717285 2.6315789222717285" stitchTiles="stitch" numOctaves="3" result="noise" seed="4858" />
<feColorMatrix in="noise" type="luminanceToAlpha" result="alphaNoise" />
<feComponentTransfer in="alphaNoise" result="coloredNoise1">
<feFuncA type="discrete" tableValues="1 1 1 1 1 1 1 1 1 1 1 1 1 1 1 1 1 1 1 1 1 1 1 1 1 1 1 1 1 1 1 1 1 1 1 1 1 1 1 1 1 1 1 1 1 1 1 1 1 1 1 0 0 0 0 0 0 0 0 0 0 0 0 0 0 0 0 0 0 0 0 0 0 0 0 0 0 0 0 0 0 0 0 0 0 0 0 0 0 0 0 0 0 0 0 0 0 0 0 0 "/>
</feComponentTransfer>
<feComposite operator="in" in2="effect1_texture_2_4" in="coloredNoise1" result="noise1Clipped" />
<feFlood flood-color="rgba(0, 0, 0, 0.25)" result="color1Flood" />
<feComposite operator="in" in2="noise1Clipped" in="color1Flood" result="color1" />
<feMerge result="effect2_noise_2_4">
<feMergeNode in="effect1_texture_2_4" />
<feMergeNode in="color1" />
</feMerge>
</filter>
</defs>
</svg>
